<?xml version="1.0" encoding="UTF-8" standalone="no"?>
<!-- Created with Inkscape (http://www.inkscape.org/) -->

<svg
   xmlns:dc="http://purl.org/dc/elements/1.1/"
   xmlns:cc="http://creativecommons.org/ns#"
   xmlns:rdf="http://www.w3.org/1999/02/22-rdf-syntax-ns#"
   xmlns:svg="http://www.w3.org/2000/svg"
   xmlns="http://www.w3.org/2000/svg"
   xmlns:sodipodi="http://sodipodi.sourceforge.net/DTD/sodipodi-0.dtd"
   xmlns:inkscape="http://www.inkscape.org/namespaces/inkscape"
   width="192"
   height="46"
   id="svg2"
   version="1.1"
   inkscape:version="0.48.0 r9654"
   sodipodi:docname="New document 1">
  <defs
     id="defs4" />
  <sodipodi:namedview
     id="base"
     pagecolor="#ffffff"
     bordercolor="#666666"
     borderopacity="1.0"
     inkscape:pageopacity="0.0"
     inkscape:pageshadow="2"
     inkscape:zoom="2.84"
     inkscape:cx="137.20776"
     inkscape:cy="-14.192148"
     inkscape:document-units="px"
     inkscape:current-layer="layer1"
     showgrid="false"
     fit-margin-top="0"
     fit-margin-left="0"
     fit-margin-right="0"
     fit-margin-bottom="0"
     inkscape:window-width="1366"
     inkscape:window-height="720"
     inkscape:window-x="0"
     inkscape:window-y="0"
     inkscape:window-maximized="0" />
  <metadata
     id="metadata7">
    <rdf:RDF>
      <cc:Work
         rdf:about="">
        <dc:format>image/svg+xml</dc:format>
        <dc:type
           rdf:resource="http://purl.org/dc/dcmitype/StillImage" />
        <dc:title></dc:title>
      </cc:Work>
    </rdf:RDF>
  </metadata>
  <g
     inkscape:label="Layer 1"
     inkscape:groupmode="layer"
     id="layer1"
     transform="translate(0,-1006.3622)">
    <text
       xml:space="preserve"
       style="font-size:40px;font-style:normal;font-weight:normal;line-height:125%;letter-spacing:0px;word-spacing:0px;fill:#000000;fill-opacity:1;stroke:none;font-family:Sans"
       x="10.450705"
       y="1036.4468"
       id="text2993"
       sodipodi:linespacing="125%"><tspan
         sodipodi:role="line"
         id="tspan2995"
         x="10.450705"
         y="1036.4468"
         style="font-size:28px;font-style:normal;font-variant:normal;font-weight:normal;font-stretch:normal;font-family:CopprplGoth Bd BT;-inkscape-font-specification:CopprplGoth Bd BT">Open     POS</tspan></text>
    <rect
       style="opacity:0;fill:none;stroke:none"
       id="rect2997"
       width="28.169014"
       height="22.535212"
       x="88.61972"
       y="1016.4467" />
    <rect
       style="fill:none;stroke:#000000;stroke-width:0.1;stroke-linejoin:miter;stroke-miterlimit:4;stroke-opacity:0;stroke-dasharray:none"
       id="rect3767"
       width="26.056337"
       height="27.464788"
       x="89.323944"
       y="1014.334" />
    <rect
       style="fill:none;stroke:#000000;stroke-width:1.222;stroke-linejoin:round;stroke-miterlimit:4;stroke-opacity:1;stroke-dasharray:none"
       id="rect3783"
       width="184.41595"
       height="38.476921"
       x="4.8168993"
       y="1009.1674" />
    <path
       style="fill:#000000;fill-opacity:1;stroke:#000000;stroke-width:0.17605634;stroke-linejoin:miter;stroke-miterlimit:4;stroke-opacity:1;stroke-dasharray:none"
       d="m 86.658464,1028.1389 0,-16.0211 17.781686,0 17.78168,0 0,16.0211 0,16.0211 -17.78168,0 -17.781686,0 0,-16.0211 z m 13.732386,11.4185 c 0,-0.2075 -0.23768,-0.6149 -0.528167,-0.9054 -0.37968,-0.3797 -0.52817,-1.3045 -0.52817,-3.2895 l 0,-2.7613 1.483637,-1.0911 c 0.816,-0.6 1.60339,-1.0495 1.74976,-0.9987 0.14636,0.051 1.7084,1.8159 3.4712,3.9226 2.27981,2.7246 3.09615,3.9394 2.82771,4.2078 -0.20756,0.2076 -0.37738,0.5834 -0.37738,0.8351 0,0.3502 0.99314,0.4578 4.22535,0.4578 4.6961,0 5.16264,-0.2755 3.03548,-1.7924 -1.28209,-0.9142 -9.44055,-10.5213 -9.28902,-10.9384 0.13282,-0.3655 7.63092,-6.2757 8.98241,-7.0802 0.6294,-0.3746 1.14436,-0.9032 1.14436,-1.1745 0,-0.3978 -0.88676,-0.4934 -4.57745,-0.4934 -3.52113,0 -4.57747,0.1056 -4.57747,0.4577 0,0.2518 0.17475,0.6325 0.38832,0.8461 0.38035,0.3804 -0.78772,1.4524 -6.63832,6.0927 l -1.848587,1.4662 0,-3.3077 c 0,-2.3633 0.14762,-3.5029 0.51697,-3.9912 1.047207,-1.3846 0.725617,-1.5638 -2.8057,-1.5638 -2.67776,0 -3.34507,0.1012 -3.34507,0.5074 0,0.279 0.15845,0.6053 0.35211,0.725 0.48108,0.2973 0.48108,19.1901 0,19.1901 -0.19366,0 -0.35211,0.2377 -0.35211,0.5282 0,0.4324 0.60642,0.5282 3.34507,0.5282 2.14398,0 3.345067,-0.1355 3.345067,-0.3773 z"
       id="path3785"
       inkscape:connector-curvature="0" />
  </g>
</svg>
